<?xml version="1.0" encoding="UTF-8" standalone="no"?>
<svg xmlns="http://www.w3.org/2000/svg" version="1.1" viewBox="0 0 500 370">
 <g transform="translate(0,-682.36223)">
  <path d="M335.88,867.36,500,1016,500,718.67,335.88,867.36z"/>
  <path d="M184.19,885.52,8.625,1044.5c5.0255,4.8222,11.828,7.8124,19.375,7.8124h444c7.5472,0,14.35-2.9902,19.375-7.8124l-175.57-158.98-65.81,59.62-65.812-59.625z"/>
  <path d="M0,718.64,0,1016.1,164.16,867.36,0,718.64z"/>
  <path d="M8.625,690.17,250,908.86,491.38,690.21c-5.03-4.83-11.83-7.85-19.38-7.85h-444c-7.5472,0-14.35,2.9902-19.375,7.8125z"/>
 </g>
</svg>
